<svg xmlns="http://www.w3.org/2000/svg" width="386.694" height="158.745" viewBox="0 0 1250.626 513.406">
  <defs>
    <style>
      .cls-1 {
        fill: #9fc9eb;
        fill-rule: evenodd;
      }
    </style>
  </defs>
  <path id="a" class="cls-1" d="M505.83,300.826a79.158,79.158,0,0,1-19.483-2.783l6.6-60.644L504.4,152.731q1.91-13.476,6.31-31.494a33.424,33.424,0,0,1-13.2,7.47q-4.4,1.319-21.707,2.783-19.923,1.467-27.832,3.37-15.381,3.514-25.635,10.18a46.716,46.716,0,0,0-15.747,16.553,41.555,41.555,0,0,0-5.493,20.435q0,7.47,3,11.206a9.728,9.728,0,0,0,7.984,3.735,8.184,8.184,0,0,0,6.006-2.49,7.861,7.861,0,0,0,2.49-5.713q0-2.49-2.051-7.91a22.328,22.328,0,0,1-1.9-7.471q0-8.055,6.143-15.82T441.2,145.846q8.923-2.928,45.06-6.152-26.5,29.882-69.239,95.507-37.766,58.008-57.088,76.172-11.865,11.132-21.679,11.133-2.932,0-11.719-2.051a28.892,28.892,0,0,0-5.566-.732,7.708,7.708,0,0,0-5.86,2.49,8.83,8.83,0,0,0-2.344,6.3,9.865,9.865,0,0,0,4.029,8.13q4.031,3.148,12.231,3.149,15.673,0,33.032-14.575t54.655-71.411q35.973-.879,53.085-0.732-2.493,21.828-4.688,30.761a181.806,181.806,0,0,1-7.617,24.024,141.509,141.509,0,0,1,18.9-1.905q3.66,0,17.432,1.465a129.86,129.86,0,0,0,13.77.879q3.954,0,9.228-.439l1.465-8.35a65.166,65.166,0,0,1-12.451,1.318h0Zm-46.568-58.154q-22.533,0-34.674-.439l37.638-55.777q4.391-6.447,22.95-31.089-7.032,27.395-14.063,86.866-6.292.44-11.851,0.439h0Zm184.7,43.067q-9.669,8.349-13.184,8.349a2.731,2.731,0,0,1-2.417-1.172,6.223,6.223,0,0,1-.806-3.515,63.66,63.66,0,0,1,1.689-13.623q1.691-7.615,11.241-38.965,7.051-22.7,8.963-31.348a43.257,43.257,0,0,0,1.176-9.961q0-6.015-3.227-9.379t-8.945-3.365q-7.332,0-19.358,7.459a188.751,188.751,0,0,0-37.986,30.86l16.34-72.3q4.546-20.165,8.8-25.61a13.325,13.325,0,0,1,11-5.445q4.841,0,17.454,1.861a68.744,68.744,0,0,0,9.094.776q6.159,0,9.755-3.044a9.057,9.057,0,0,0,3.593-7.057,9.909,9.909,0,0,0-3.662-7.873q-3.663-3.118-9.961-3.12-15.088,0-30.542,8.384a70.531,70.531,0,0,0-25.049,22.433q-9.6,14.048-15.454,40.081l-21.533,93.943q-3.812,16.242-10.84,41.848h21.826l11.561-51.159q3.817-16.529,10.14-24.939a92.265,92.265,0,0,1,22.918-21.623q9.255-6.135,15.426-6.136,4.992,0,4.994,4.687,0,3.077-4.98,21.241-11.281,36.914-13.7,48.12t-2.417,17.065q0,8.644,3.149,12.744a9.94,9.94,0,0,0,8.276,4.1q6.3,0,15.967-6.006a129.567,129.567,0,0,0,27.686-23.73l-3.809-5.42q-7.766,6.3-13.183,10.84h0Zm54.785-85.987q2.637,0,2.636,3.369,0,2.637-7.324,32.959L677.51,305.953h21.047l11.261-49.511q4.533-19.92,10.893-29.663t20.84-20.142q8.335-6.153,12.284-6.152a4.4,4.4,0,0,1,3.364,1.245,5.057,5.057,0,0,1,1.17,3.589q0,1.465-2.344,11.132l-21.826,89.5H755q4.833-22.851,14.648-59.033,4.395-16.551,10.254-24.17A76.1,76.1,0,0,1,801,204.147q6.152-3.66,9.814-3.662,4.4,0,4.4,4.98,0,5.274-7.471,30.029-9.963,32.959-12.012,42.408a79.047,79.047,0,0,0-2.05,16.479q0,7.619,3.369,11.939t7.763,4.321q5.857,0,14.356-4.981,4.4-2.636,16.113-13.183,8.495-7.762,11.572-10.254l-4.834-5.274a141.036,141.036,0,0,1-17.724,15.235,9.66,9.66,0,0,1-5.42,1.758q-4.1,0-4.1-4.981,0-7.323,11.573-45.263,9.228-30.615,10.693-36.622a44.9,44.9,0,0,0,1.465-10.4q0-7.323-3.372-10.84t-9.528-3.515q-6.891,0-19.205,7.251t-29.025,24.682q4.385-14.793,4.385-20.947,0-5.713-2.483-8.35t-7.306-2.636q-18.553,0-53.615,35.742,1.319-7.176,4.692-19.483,2.341-8.349,2.343-11.279a4.57,4.57,0,0,0-1.54-3.662,6.98,6.98,0,0,0-4.633-1.318q-7.51,0-20.578,6.884t-27.567,21.387l4.395,5.859q17.577-16.7,23.291-16.7h0Zm207.275,87.891a31.331,31.331,0,0,1-13.183,3.369q-6.3,0-9.6-4.1t-3.3-14.5a91.861,91.861,0,0,1,1.318-15.087q27.83-12.6,36.328-17.432,16.992-9.96,23.584-19.19t6.592-18.75q0-9.08-5.493-14.282t-15.894-5.2q-29.737,0-51.123,35.3-19.044,31.056-19.043,62.4,0,15.528,5.494,22.559t15.893,7.031q25.632,0,61.524-34.131l-4.834-6.445q-18.6,13.918-28.272,18.457h0Zm-13.476-72.51q4.686-10.986,11.572-16.406a16.749,16.749,0,0,1,10.547-4.1,10.89,10.89,0,0,1,8.569,3.736q3.3,3.735,3.3,10.034,0,8.349-8.057,16.845-11.865,12.161-35.449,22.706a147.721,147.721,0,0,1,9.522-32.813h0Zm160.4,74.412a13.323,13.323,0,0,1-6.15,1.906c-2.84,0-4.25-1.856-4.25-5.573q0-5.125,3.65-20.805l20.72-88.491q8.31-35.454,10.65-42.047,3.525-10.379,7.42-13.523a13.934,13.934,0,0,1,9.03-3.145,114.249,114.249,0,0,1,13.65,1.465,113.7,113.7,0,0,0,13.66,1.465c3.72,0,6.65-.952,8.81-2.856a9.428,9.428,0,0,0,3.23-7.4,9.858,9.858,0,0,0-3.52-7.763q-3.51-3.077-9.37-3.077-11.13,0-23.95,5.191a71.628,71.628,0,0,0-22.78,14.7,77.15,77.15,0,0,0-16.26,22.593q-6.3,13.088-13.18,41.6a67.862,67.862,0,0,0-9.67-1.025q-14.505,0-32.01,12.98t-31.786,40.036q-14.282,27.057-14.282,47.882,0,13.2,5.274,20.018t13.037,6.818q9.372,0,21.094-6.742t29.293-25.658l-5.12,17.9a34.644,34.644,0,0,0-1.61,8.2,5.9,5.9,0,0,0,2.19,4.467,8.228,8.228,0,0,0,5.72,1.978q7.605,0,20.8-7.471,9.51-5.418,29.15-21.972l-4.11-5.567q-14.355,11.13-19.33,13.914h0Zm-18.46-60.153q-6.735,28.613-10.69,35.946A61.234,61.234,0,0,1,1005.93,285q-7.92,5.431-14.065,5.429-5.13,0-9.155-4.768t-4.029-12.252q0-16.431,8.716-38.585t18.093-29.855q9.375-7.7,19.19-7.7,4.83,0,16.55,2.641ZM315.652,380.905q-13.047,3.37-39.121,3.369H226.287q-44.532,0-72.134,24.463t-33.03,55.224q-2.534,14.358.945,22.7,2.342,5.714,8.02,5.713a11.058,11.058,0,0,0,7.061-2.486,9.359,9.359,0,0,0,3.7-5.706q0.567-3.216-1.314-8.335a61.181,61.181,0,0,1-3.319-13.166,42.376,42.376,0,0,1,.689-10.97q2.6-14.769,13.765-28.155a84.087,84.087,0,0,1,28.322-21.721,78.832,78.832,0,0,1,34.76-8.338q-19.761,46.534-38.326,88.387t-28.036,55.754a21.829,21.829,0,0,1-6.321,6.6q-3.492,2.253-21.719,7.04l-3.763,8.183a444.193,444.193,0,0,1,51.343-3.516q16.561,0,47.461,3.516a213.387,213.387,0,0,0,23.465,1.611q17.883,0,30.46-9.375t14.769-21.826q1.031-5.857-1.35-9.375a7.845,7.845,0,0,0-6.924-3.515,10.713,10.713,0,0,0-6.983,2.625,10,10,0,0,0-3.763,5.98,20.567,20.567,0,0,0,.019,6.855q1.066,5.25.659,7.583-0.721,4.086-5.244,7.293a18.472,18.472,0,0,1-10.973,3.208q-4.84,0-17.781-3.076-24.528-5.565-42.117-5.566-10.557,0-24.946,4.3,18.99-28.234,40.75-77.98h30.046a71.918,71.918,0,0,1,12.181.733q2.7,0.44,3.527,1.611,1.638,2.344,1.355,3.955-0.673,3.811-2.619,10.693h7.471q7.406-21.237,15.221-38.964h-8.35q-2.962,8.5-6.628,10.62t-18,2.124H208.359l27.5-64.6,21.435-.146q32.115,0,36.706,1.831t3.557,7.69a88.927,88.927,0,0,1-3.264,11.865h7.764q3.426-10.3,13.593-34.716h0Zm20.393,159.228q-6.828,3.811-10.05,3.809-3.372,0-2.541-4.688,0.361-2.049,19.336-48.193l25.438-61.377q13.569-33.093,18.979-44.319t10.261-14.726q3.5-2.478,9.487-2.479a75.566,75.566,0,0,1,12.783,1.172,69.89,69.89,0,0,0,12.149,1.465q6.713,0,10.749-3.023a12.022,12.022,0,0,0,4.87-7.746,7.811,7.811,0,0,0-2.3-7.3q-3.051-3.021-9.34-3.024-18.437,0-36.788,9.922a86.415,86.415,0,0,0-30.59,27.871q-7.946,11.865-22.724,46.729L318.63,498.531q-15.581,36.915-17.647,48.633-1.06,6.009,1.263,9.449a7.747,7.747,0,0,0,6.864,3.442q10.108,0,27.581-10.62a186.927,186.927,0,0,0,31.171-23.511l-4.049-5.273a188.963,188.963,0,0,1-27.768,19.482h0ZM467.428,414.6a4.865,4.865,0,0,1,3.852,1.392,4.273,4.273,0,0,1,.806,3.735,28.54,28.54,0,0,1-1.937,6.006l-20.127,47.754-16.839,38.232q-11.295,22.56-16.729,29.3a17.906,17.906,0,0,1-6.592,5.42q-3.578,1.614-17.171,2.344l-4.635,7.177q13.541-.439,20.131-0.439,14.2,0,29.8,1.172,18.477,1.462,26.088,1.465,23.565,0,49.1-10.767t46.7-36.182q21.166-25.411,26.514-55.737,5.757-32.664-14.383-54.272T511.44,379.586A142.741,142.741,0,0,0,449.367,393.5q-29.262,13.918-48.42,37.427t-23.6,48.706a45.211,45.211,0,0,0,4.811,29.443q5.549,10.255,13.344,10.254a10.283,10.283,0,0,0,6.731-2.71,10.492,10.492,0,0,0,3.82-6.225,6.993,6.993,0,0,0-.565-4.688q-1.058-1.9-5.278-4.541-14.859-8.788-11.552-27.539,3.386-19.188,20.355-39.477a126.643,126.643,0,0,1,42.116-32.593q25.144-12.3,51.052-12.305,30.735,0,46.262,19.849t9.766,52.514a109.871,109.871,0,0,1-19.228,45.557q-14.838,20.655-35.758,31.421t-46.532,10.767a109.532,109.532,0,0,1-21.8-2.491q17.007-22.556,35.2-66.8L486.959,439.2A332.036,332.036,0,0,1,504.6,402.287a282.761,282.761,0,0,1-38.768,6.45l-2.575,6.3a38.384,38.384,0,0,1,4.175-.439h0Zm162.92,123.047q-7.771,3.37-13.778,3.369-6.3,0-8.872-4.1t-0.739-14.5a100.1,100.1,0,0,1,3.98-15.087q30.051-12.6,39.4-17.432,18.745-9.96,26.967-19.19t9.9-18.75q1.6-9.079-2.976-14.282t-14.975-5.2q-29.739,0-57.347,35.3-24.519,31.056-30.047,62.4-2.74,15.528,1.515,22.559t14.655,7.031q25.634,0,67.541-34.131l-3.7-6.445q-21.06,13.918-31.527,18.457h0Zm-0.691-72.51q6.622-10.986,14.466-16.406,5.85-4.1,11.27-4.1,5.273,0,7.91,3.736t1.526,10.034q-1.471,8.349-11.027,16.845-14.011,12.16-39.452,22.706a175.619,175.619,0,0,1,15.307-32.813h0Zm105.618-21.62q-13.468,10.752-16,25.092-2.76,15.655,9.483,32.625,8.844,12.144,11.064,17.411a18.4,18.4,0,0,1,1.293,10.533,24.7,24.7,0,0,1-5.28,10.9,26.613,26.613,0,0,1-10.785,8.194,36.8,36.8,0,0,1-14.344,2.7q-6.859,0-10.208-3.369a8.672,8.672,0,0,1-2.642-8.2q0.234-1.318.666-3.223,0.609-2.342.868-3.809A7.18,7.18,0,0,0,697.587,526a8.407,8.407,0,0,0-6.553-2.71,12.547,12.547,0,0,0-8.5,3.369,14.321,14.321,0,0,0-4.722,8.5q-1.833,10.4,5.411,17.5t24.676,7.1q20.8,0,36.035-11.63t17.967-27.14q2.733-15.505-10.481-32.772-9.646-12.579-11.583-18.214a22.932,22.932,0,0,1-.877-11.632,18.974,18.974,0,0,1,6.638-11.483,17.443,17.443,0,0,1,11.432-4.61q7.032,0,12.532,9.522,2.928,4.982,4.76,6.226a8.026,8.026,0,0,0,4.615,1.245,11.86,11.86,0,0,0,7.768-2.93,11.428,11.428,0,0,0,4.216-6.885q1.161-6.591-5.051-11.645t-19.25-5.054A48.763,48.763,0,0,0,735.275,443.513Zm95.947,0q-13.468,10.752-16,25.092-2.76,15.655,9.483,32.625,8.844,12.144,11.064,17.411a18.4,18.4,0,0,1,1.293,10.533,24.7,24.7,0,0,1-5.28,10.9A26.606,26.606,0,0,1,821,548.268a36.8,36.8,0,0,1-14.344,2.7q-6.86,0-10.208-3.369a8.669,8.669,0,0,1-2.641-8.2q0.232-1.318.666-3.223,0.608-2.342.867-3.809A7.175,7.175,0,0,0,793.534,526a8.407,8.407,0,0,0-6.553-2.71,12.547,12.547,0,0,0-8.5,3.369,14.321,14.321,0,0,0-4.722,8.5q-1.833,10.4,5.411,17.5t24.676,7.1q20.8,0,36.035-11.63t17.967-27.14q2.733-15.505-10.48-32.772-9.648-12.579-11.584-18.214a22.932,22.932,0,0,1-.877-11.632,18.974,18.974,0,0,1,6.638-11.483,17.444,17.444,0,0,1,11.433-4.61q7.031,0,12.531,9.522,2.928,4.982,4.761,6.226a8.025,8.025,0,0,0,4.614,1.245,11.86,11.86,0,0,0,7.768-2.93,11.423,11.423,0,0,0,4.216-6.885q1.161-6.591-5.051-11.645t-19.249-5.054A48.763,48.763,0,0,0,831.222,443.513Zm74.851,21.62q-22.179,26.076-27.6,56.836-3.123,17.725,4.663,27.979T906.6,560.2q25.488,0,52.9-25.854t33.147-58.374q3.587-20.36-3.919-31.787T966.86,432.76q-32.96,0-60.787,32.373h0Zm59.612-12.012q4.278,9.377.406,31.348-5.168,29.3-21.543,49.072-12.795,15.237-25.1,15.235-8.788,0-12.641-8.057-5.243-10.986-1.884-30.029,5.528-31.345,20.311-49.146t27.235-17.8Q961.4,443.746,965.685,453.121ZM1085.9,496.774q-7.74,17.286-25.2,30.835t-25.65,13.549a4.716,4.716,0,0,1-3.94-2.2,6.72,6.72,0,0,1-1.04-5.28q0.885-4.986,16.54-40.632,17.535-39.6,19.31-49.726,0.96-5.426-.78-7.993a5.944,5.944,0,0,0-5.26-2.568q-6.3,0-17.6,5.493t-34.02,23.071l5.54,5.127q12.825-10.4,17.84-13.11c3.34-1.806,5.9-2.71,7.65-2.71,1.96,0,2.69,1.369,2.21,4.106q-1.245,7.042-17.29,42.391Q1011.535,525,1008,534.239a68.932,68.932,0,0,0-3.49,12.321q-1.29,7.333,1.04,10.707c1.55,2.248,4.04,3.374,7.45,3.374q9.375,0,23.42-7.471a166.352,166.352,0,0,0,36.83-26.221q-5.43,12.746-6.76,20.362-1.17,6.591,1.49,10.18a8.664,8.664,0,0,0,7.36,3.589q13.9,0,48.75-30.615l-3.87-5.42q-15.885,13.623-21.31,16.992-3.765,2.2-6.25,2.2a3.192,3.192,0,0,1-2.67-1.465,5.468,5.468,0,0,1-.57-4.248q1.08-6.159,21.11-50.757l22.8-51.2h-20.86Zm92.65-4.093a50.248,50.248,0,0,1,10.08,13.346q4.32,8.652,8.59,25.958,9.225,36.516,13.72,46.781,7.86,17.744,19.03,25.811t27.14,8.066q15.525,0,26.65-8.2,11.1-8.207,12.97-18.75,0.945-5.421-1.4-8.716a7.476,7.476,0,0,0-6.44-3.3,10.036,10.036,0,0,0-6.62,2.637,10.173,10.173,0,0,0-3.7,6.006,15.85,15.85,0,0,0,.48,6.445,14.442,14.442,0,0,1,.48,5.566q-0.57,3.221-5.81,6.372a23.7,23.7,0,0,1-12.42,3.15q-12.3,0-20.85-9.682-8.7-9.681-15.68-39.015-5.91-24.641-10.58-35.129T1203.83,503.6q-5.685-5.938-16.09-10.929,33.555-.879,51.98-13.183t21.2-27.979q1.47-8.349-2.62-13.843a13.437,13.437,0,0,0-11.42-5.493q-10.41,0-22.98,6.443-16.635,8.638-33.51,24.6l18.75-46.715q10.32-26.151,14.93-34.453t9.21-11.534a15.812,15.812,0,0,1,9.13-3.232,35.2,35.2,0,0,1,7.31.879q12.63,2.2,19.07,2.2a14.536,14.536,0,0,0,9.01-2.93,11.155,11.155,0,0,0,4.6-7.031,7.957,7.957,0,0,0-2.36-7.764q-3.225-2.928-10.84-2.93-8.055,0-19.34,3.74a87.975,87.975,0,0,0-21.67,10.781,90.169,90.169,0,0,0-18.06,15.985,108,108,0,0,0-14.4,22.73q-6.765,13.788-31.15,73.18l-33.26,79.834h21.82Zm6.33-16.511q33.78-30.666,47.52-30.666a7.732,7.732,0,0,1,6.65,3.369q2.4,3.372,1.42,8.936a27.433,27.433,0,0,1-7.71,14.355q-6.33,6.593-19.21,10.547t-32.52,3.809Zm161.7-101.784a19.4,19.4,0,0,0-6.22,11.206q-0.87,4.982,1.51,8.057a8.078,8.078,0,0,0,6.78,3.076q5.565,0,10.9-4.907a19.889,19.889,0,0,0,6.47-11.353q0.825-4.686-1.57-7.69a8.373,8.373,0,0,0-6.94-3A15.975,15.975,0,0,0,1346.58,374.386ZM1302.1,451.8a15.068,15.068,0,0,1,7.08-2.344c1.76,0,2.46.978,2.12,2.93a23.72,23.72,0,0,1-2.09,6.006q-34.515,71.192-37.75,89.5-1.005,5.712,1.43,8.935t7.56,3.223q5.85,0,16.02-5.274,10.155-5.273,33.55-24.169l-4.73-5.567q-22.53,18.165-27.22,18.164a2.237,2.237,0,0,1-1.95-1.391,4.975,4.975,0,0,1-.42-3.443q1.875-10.69,26.54-62.695,15.09-31.785,15.85-36.035a5.848,5.848,0,0,0-1.51-5.567q-2.13-2.049-6.81-2.05-8.49,0-21.76,6.811t-30.74,22.925l5.57,4.98Q1297.945,454.148,1302.1,451.8Z" transform="translate(-115.594 -99.25)"/>
</svg>
